<svg width="20" height="20" viewBox="0 0 20 20" fill="none" xmlns="http://www.w3.org/2000/svg">
  <path d="M8.33333 8.33333H4.16667L8.33333 4.16667V8.33333ZM15.8333 8.33333H11.6667L15.8333 4.16667V8.33333ZM3.33333 3.33333L1.66667 5V8.33333C1.66667 9.25381 2.41286 10 3.33333 10H6.66667C7.58714 10 8.33333 9.25381 8.33333 8.33333V5C8.33333 4.07953 7.58714 3.33333 6.66667 3.33333H3.33333ZM10.8333 3.33333L9.16667 5V8.33333C9.16667 9.25381 9.91286 10 10.8333 10H14.1667C15.0871 10 15.8333 9.25381 15.8333 8.33333V5C15.8333 4.07953 15.0871 3.33333 14.1667 3.33333H10.8333Z" stroke="white" stroke-width="1.5" stroke-linecap="round" stroke-linejoin="round"/>
</svg> 