<svg width="100" height="100" xmlns="http://www.w3.org/2000/svg">
  <defs>
    <pattern id="subtle-pattern" width="100" height="100" patternUnits="userSpaceOnUse">
      <rect width="100" height="100" fill="#f9fafb"/>
      
      <!-- Small waves -->
      <path d="M10,30 Q15,25 20,30 Q25,35 30,30" stroke="#e5e7eb" stroke-width="1" fill="none"/>
      <path d="M50,70 Q55,65 60,70 Q65,75 70,70" stroke="#e5e7eb" stroke-width="1" fill="none"/>
      <path d="M80,40 Q85,35 90,40 Q95,45 100,40" stroke="#e5e7eb" stroke-width="1" fill="none"/>
      
      <!-- Small anchors -->
      <circle cx="15" cy="60" r="1.5" fill="#d1d5db"/>
      <circle cx="75" cy="25" r="1.5" fill="#d1d5db"/>
      <circle cx="45" cy="85" r="1.5" fill="#d1d5db"/>
      
      <!-- Tiny dots -->
      <circle cx="30" cy="15" r="0.8" fill="#e5e7eb"/>
      <circle cx="60" cy="45" r="0.8" fill="#e5e7eb"/>
      <circle cx="90" cy="75" r="0.8" fill="#e5e7eb"/>
      <circle cx="25" cy="80" r="0.8" fill="#e5e7eb"/>
      <circle cx="70" cy="10" r="0.8" fill="#e5e7eb"/>
    </pattern>
  </defs>
  
  <rect width="100" height="100" fill="url(#subtle-pattern)"/>
</svg> 